<svg xmlns="http://www.w3.org/2000/svg" viewBox="0 0 64 47" width="64" height="47" fill="#006ce7"><path d="M 37.953 46.401 L 25.665 46.401 Q 13.441 46.401 6.721 40.545 A 18.685 18.685 0 0 1 0.986 31.159 Q 0.139 28.082 0.02 24.393 A 37.965 37.965 0 0 1 0.001 23.169 Q 0.001 14.268 4.058 8.747 A 17.829 17.829 0 0 1 6.721 5.857 A 21.75 21.75 0 0 1 14.478 1.605 Q 17.741 0.559 21.698 0.195 A 48.25 48.25 0 0 1 26.113 0.001 L 37.633 0.001 Q 46.289 0.001 52.168 2.733 A 20.48 20.48 0 0 1 57.025 5.857 Q 63.745 11.713 63.745 23.169 Q 63.745 34.689 57.025 40.545 Q 50.305 46.401 37.953 46.401 Z M 27.009 38.081 L 36.929 38.081 Q 44.097 38.081 48.033 35.521 Q 51.969 32.961 52.993 27.329 L 10.753 27.329 A 15.273 15.273 0 0 0 11.853 30.945 A 10.479 10.479 0 0 0 15.745 35.521 Q 18.617 37.374 23.234 37.886 A 34.342 34.342 0 0 0 27.009 38.081 Z M 36.929 8.321 L 26.817 8.321 Q 19.713 8.321 15.745 10.881 A 10.662 10.662 0 0 0 11.569 16.096 A 15.665 15.665 0 0 0 10.753 19.009 L 52.993 19.009 A 15.006 15.006 0 0 0 51.877 15.395 A 10.5 10.5 0 0 0 48.001 10.881 A 14.107 14.107 0 0 0 44.259 9.223 Q 41.147 8.321 36.929 8.321 Z" /></svg>